
<svg className="h-12 text-black" width="544px" height="105px" viewBox="0 0 544 105" version="1.1" xmlns="http://www.w3.org/2000/svg" xmlns:xlink="http://www.w3.org/1999/xlink">
    <g  stroke="none" stroke-width="1" fill="none" fill-rule="evenodd">
        <path d="M35.6,43.4 C35.6,40.199984 37.59998,38.3600024 41.6,37.88 C41.199998,35.079986 39.8600114,32.880008 37.58,31.28 C35.2999886,29.679992 32.360018,28.88 28.76,28.88 C23.2399724,28.88 18.8000168,31.079978 15.44,35.48 C12.0799832,39.880022 10.4,45.7199636 10.4,53 C10.4,60.5200376 11.9799842,66.4199786 15.14,70.7 C18.3000158,74.9800214 22.679972,77.12 28.28,77.12 C31.8000176,77.12 34.859987,76.12001 37.46,74.12 C40.060013,72.11999 41.8399952,69.3600176 42.8,65.84 C43.600004,63.039986 44.0799992,61.440002 44.24,61.04 C45.1200044,59.439992 46.3999916,58.64 48.08,58.64 C49.4400068,58.64 50.5599956,59.0799956 51.44,59.96 C52.3200044,60.8400044 52.76,61.9599932 52.76,63.32 C52.76,65.32001 52.1200064,67.719986 50.84,70.52 C49.5599936,73.320014 48.0400088,75.6399908 46.28,77.48 C41.5599764,82.5200252 35.4400376,85.04 27.92,85.04 C19.7599592,85.04 13.180025,82.1600288 8.18,76.4 C3.179975,70.6399712 0.68,63.0800468 0.68,53.72 C0.68,43.7999504 3.2599742,35.8600298 8.42,29.9 C13.5800258,23.9399702 20.4399572,20.96 29,20.96 C35.400032,20.96 40.7199788,22.6999826 44.96,26.18 C49.2000212,29.6600174 51.32,34.0799732 51.32,39.44 C51.32,42.4000148 50.5000082,44.8399904 48.86,46.76 C47.2199918,48.6800096 45.1200128,49.64 42.56,49.64 C40.55999,49.64 38.9000066,49.040006 37.58,47.84 C36.2599934,46.639994 35.6,45.1600088 35.6,43.4 Z M89.48,85.04 C81.079958,85.04 74.3600252,82.140029 69.32,76.34 C64.2799748,70.539971 61.76,62.7600488 61.76,53 C61.76,43.2399512 64.2999746,35.460029 69.38,29.66 C74.4600254,23.859971 81.2799572,20.96 89.84,20.96 C98.5600436,20.96 105.439975,23.7999716 110.48,29.48 C115.520025,35.1600284 118.04,42.8799512 118.04,52.64 C118.04,62.4000488 115.440026,70.2399704 110.24,76.16 C105.039974,82.0800296 98.1200432,85.04 89.48,85.04 Z M90.08,28.88 C84.479972,28.88 80.080016,30.8399804 76.88,34.76 C73.679984,38.6800196 71.9200016,44.239964 71.6,51.44 L71.6,53 C71.6,60.5200376 73.1799842,66.4199786 76.34,70.7 C79.5000158,74.9800214 83.9199716,77.12 89.6,77.12 C95.4400292,77.12 100.019983,74.9800214 103.34,70.7 C106.660017,66.4199786 108.32,60.480038 108.32,52.88 C108.32,36.87992 102.240061,28.88 90.08,28.88 Z M154.28,20.96 C162.20004,20.96 168.11998,24.0399692 172.04,30.2 L172.04,18.08 C172.04,14.879984 171.960001,12.9200036 171.8,12.2 C171.399998,9.7199876 170.280009,8.48 168.44,8.48 C167.799997,8.48 166.900006,8.5999988 165.74,8.84 C164.579994,9.0800012 163.680003,9.2 163.04,9.2 C160.079985,9.2 158.6,7.9200128 158.6,5.36 C158.6,2.7199868 160.59998,1.4 164.6,1.4 C165.240003,1.4 166.399992,1.4799992 168.08,1.64 C170.640013,1.8800012 171.96,2 172.04,2 C172.760004,2 173.799993,1.9200008 175.16,1.76 C176.520007,1.5999992 177.559996,1.52 178.28,1.52 C180.520011,1.52 181.64,3.119984 181.64,6.32 L181.64,7.64 C181.56,7.8800012 181.48,9.99998 181.4,14 C181.4,14.4800024 181.280001,17.5599716 181.04,23.24 C180.879999,27.24002 180.8,30.2799896 180.8,32.36 L180.8,44.12 L181.04,64.16 C181.12,69.4400264 181.359998,72.7199936 181.76,74 C182.160002,75.2800064 183.119992,75.92 184.64,75.92 C185.680005,75.92 186.479997,75.8400008 187.04,75.68 C188.320006,75.5199992 189.199998,75.44 189.68,75.44 C192.640015,75.44 194.12,76.7599868 194.12,79.4 C194.12,82.1200136 192.320018,83.48 188.72,83.48 C187.919996,83.48 186.700008,83.380001 185.06,83.18 C183.419992,82.979999 182.200004,82.88 181.4,82.88 C181.159999,82.88 180.240008,82.9599992 178.64,83.12 C177.679995,83.3600012 176.840004,83.48 176.12,83.48 C173.959989,83.48 172.88,82.0400144 172.88,79.16 L172.88,78.56 L173,76.52 C168.759979,82.2000284 162.60004,85.04 154.52,85.04 C146.359959,85.04 139.800025,82.0800296 134.84,76.16 C129.879975,70.2399704 127.4,62.480048 127.4,52.88 C127.4,43.1999516 129.839976,35.460029 134.72,29.66 C139.600024,23.859971 146.119959,20.96 154.28,20.96 Z M171.32,63.32 C171.640002,60.6799868 171.8,57.2800208 171.8,53.12 C171.8,47.7599732 171.600002,44.1200096 171.2,42.2 C170.479996,38.19998 168.760014,35.0800112 166.04,32.84 C162.839984,30.1999868 159.160021,28.88 155,28.88 C149.399972,28.88 145.020016,30.9999788 141.86,35.24 C138.699984,39.4800212 137.12,45.2799632 137.12,52.64 C137.12,60.240038 138.759984,66.2199782 142.04,70.58 C145.320016,74.9400218 149.799972,77.12 155.48,77.12 C159.800022,77.12 163.399986,75.8600126 166.28,73.34 C169.160014,70.8199874 170.839998,67.4800208 171.32,63.32 Z M253.88,47.72 C253.88,50.7600152 253.680002,52.6199966 253.28,53.3 C252.879998,53.9800034 251.72001,54.32 249.8,54.32 L211.64,54.32 C210.599995,54.32 209.920002,54.4599986 209.6,54.74 C209.279998,55.0200014 209.12,55.4799968 209.12,56.12 C209.12,62.12003 210.919982,67.11998 214.52,71.12 C218.120018,75.12002 222.599973,77.12 227.96,77.12 C231.480018,77.12 234.699985,76.1600096 237.62,74.24 C240.540015,72.3199904 242.439996,69.8800148 243.32,66.92 L244.4,63.44 C244.960003,61.5199904 246.27999,60.56 248.36,60.56 C251.320015,60.56 252.8,62.0799848 252.8,65.12 C252.8,70.320026 250.160026,74.9399798 244.88,78.98 C239.599974,83.0200202 233.600034,85.04 226.88,85.04 C218.479958,85.04 211.800025,82.2200282 206.84,76.58 C201.879975,70.9399718 199.4,63.3600476 199.4,53.84 C199.4,44.0799512 202.039974,36.1600304 207.32,30.08 C212.600026,23.9999696 219.479958,20.96 227.96,20.96 C235.480038,20.96 241.679976,23.4799748 246.56,28.52 C251.440024,33.5600252 253.88,39.9599612 253.88,47.72 Z M210.32,44.6 C210.32,45.7200056 211.199991,46.28 212.96,46.28 L241.64,46.28 C243.320008,46.28 244.16,45.7200056 244.16,44.6 C244.16,40.3599788 242.560016,36.6800156 239.36,33.56 C236.159984,30.4399844 232.400022,28.88 228.08,28.88 C223.599978,28.88 219.520018,30.4999838 215.84,33.74 C212.159982,36.9800162 210.32,40.59998 210.32,44.6 Z M294.92,0.32 C302.760039,0.32 309.159975,2.8399748 314.12,7.88 L314.12,6.2 C314.12,3.0799844 315.359988,1.52 317.84,1.52 C320.560014,1.52 321.92,3.2399828 321.92,6.68 L321.92,7.4 C321.92,7.5600008 321.800001,8.7599888 321.56,11 C321.319999,13.2400112 321.2,15.9199844 321.2,19.04 C321.2,19.440002 321.279999,20.7199892 321.44,22.88 L321.8,27.68 C321.88,28.080002 321.92,28.6399964 321.92,29.36 C321.92,33.2000192 320.440015,35.12 317.48,35.12 C314.359984,35.12 312.8,33.520016 312.8,30.32 L312.8,29.72 L313.04,26.48 C313.12,25.3599944 313.16,24.4800032 313.16,23.84 C313.16,19.039976 311.540016,15.2800136 308.3,12.56 C305.059984,9.8399864 300.600028,8.48 294.92,8.48 C289.719974,8.48 285.580015,9.7599872 282.5,12.32 C279.419985,14.8800128 277.88,18.3199784 277.88,22.64 C277.88,27.6800252 280.159977,31.399988 284.72,33.8 C287.280013,35.0800064 291.759968,36.2399948 298.16,37.28 C307.680048,38.8000076 314.199982,40.8799868 317.72,43.52 C323.000026,47.4400196 325.64,52.999964 325.64,60.2 C325.64,67.7200376 322.940027,73.8399764 317.54,78.56 C312.139973,83.2800236 305.160043,85.64 296.6,85.64 C287.479954,85.64 279.92003,82.7600288 273.92,77 C273.92,77.3200016 273.96,77.679998 274.04,78.08 L274.04,78.8 C274.200001,80.0800064 274.28,80.919998 274.28,81.32 C274.28,84.2800148 272.880014,85.76 270.08,85.76 C267.039985,85.76 265.52,84.0800168 265.52,80.72 C265.52,80.319998 265.56,80.0000012 265.64,79.76 L266.12,73.52 C266.360001,70.3999844 266.48,68.4000044 266.48,67.52 C266.48,65.919992 266.280002,63.520016 265.88,60.32 C265.479998,57.119984 265.28,54.720008 265.28,53.12 C265.28,49.519982 266.799985,47.72 269.84,47.72 C272.960016,47.72 274.52,49.519982 274.52,53.12 L274.52,55.28 C274.44,55.9200032 274.4,56.839994 274.4,58.04 C274.4,64.04003 276.319981,68.7999824 280.16,72.32 C284.000019,75.8400176 289.199967,77.6 295.76,77.6 C301.84003,77.6 306.679982,76.1600144 310.28,73.28 C313.880018,70.3999856 315.68,66.4800248 315.68,61.52 C315.68,53.919962 310.880048,49.2800084 301.28,47.6 L294.44,46.4 C287.639966,45.199994 282.360019,43.800008 278.6,42.2 C275.159983,40.6799924 272.42001,38.3000162 270.38,35.06 C268.33999,31.8199838 267.32,28.1600204 267.32,24.08 C267.32,17.0399648 269.879974,11.320022 275,6.92 C280.120026,2.519978 286.759959,0.32 294.92,0.32 Z M355.4,26.72 L355.4,30.08 C360.200024,23.9999696 366.59996,20.96 374.6,20.96 C378.920022,20.96 382.999981,22.059989 386.84,24.26 C390.680019,26.460011 393.279993,29.1999836 394.64,32.48 C395.760006,35.2000136 396.32,38.759978 396.32,43.16 L396.32,65.96 C396.32,69.4000172 396.36,71.4399968 396.44,72.08 C396.840002,74.8000136 397.919991,76.16 399.68,76.16 C400.400004,76.16 401.339994,76.060001 402.5,75.86 C403.660006,75.659999 404.479998,75.56 404.96,75.56 C406.000005,75.56 406.899996,75.9199964 407.66,76.64 C408.420004,77.3600036 408.8,78.2399948 408.8,79.28 C408.8,80.480006 408.320005,81.479996 407.36,82.28 C406.399995,83.080004 405.240007,83.48 403.88,83.48 C402.759994,83.48 400.920013,83.3200016 398.36,83 C395.799987,82.6799984 393.400011,82.52 391.16,82.52 C389.07999,82.52 387.360007,82.5999992 386,82.76 C381.99998,83.2400024 379.880001,83.48 379.64,83.48 C376.439984,83.48 374.84,82.080014 374.84,79.28 C374.84,76.7999876 376.199986,75.56 378.92,75.56 C379.560003,75.56 380.279996,75.6399992 381.08,75.8 C382.600008,76.1200016 383.559998,76.28 383.96,76.28 C385.88001,76.28 386.919999,74.080022 387.08,69.68 L387.32,63.56 L387.44,56.24 L387.44,47.12 C387.44,42.8799788 387.240002,39.960008 386.84,38.36 C386.119996,35.3199848 384.560012,32.9600084 382.16,31.28 C379.519987,29.4399908 376.520017,28.52 373.16,28.52 C366.759968,28.52 362.160014,30.7999772 359.36,35.36 C357.43999,38.4800156 356.48,43.7999624 356.48,51.32 L356.48,67.28 C356.48,70.8000176 356.719998,73.1999936 357.2,74.48 C357.680002,75.7600064 358.559994,76.4 359.84,76.4 C360.480003,76.4 361.359994,76.2400016 362.48,75.92 C363.600006,75.5999984 364.519996,75.44 365.24,75.44 C367.720012,75.44 368.96,76.7999864 368.96,79.52 C368.96,82.1600132 367.360016,83.48 364.16,83.48 C363.519997,83.48 361.440018,83.2400024 357.92,82.76 C356.159991,82.5199988 354.200011,82.4 352.04,82.4 C350.359992,82.4 348.120014,82.5599984 345.32,82.88 C341.799982,83.280002 339.800002,83.48 339.32,83.48 C335.959983,83.48 334.28,82.1200136 334.28,79.4 C334.28,76.8399872 335.559987,75.56 338.12,75.56 C338.520002,75.56 339.259995,75.6799988 340.34,75.92 C341.420005,76.1600012 342.479995,76.28 343.52,76.28 C345.920012,76.28 347.16,73.9600232 347.24,69.32 L347.48,56 L347.48,41.48 L347.24,37.28 C347.079999,34.5599864 346.740003,32.700005 346.22,31.7 C345.699997,30.699995 344.800006,30.2 343.52,30.2 C342.959997,30.2 342.140005,30.299999 341.06,30.5 C339.979995,30.700001 339.160003,30.8 338.6,30.8 C335.719986,30.8 334.28,29.5200128 334.28,26.96 C334.28,24.3199868 336.079982,23 339.68,23 C340.160002,23 340.559998,23.0399996 340.88,23.12 L345.32,23.6 C346.600006,23.6 347.719995,23.5200008 348.68,23.36 C350.76001,23.1999992 351.84,23.12 351.92,23.12 C354.240012,23.12 355.4,24.319988 355.4,26.72 Z M465.08,84.56 C458.519967,84.56 454.480008,81.7200284 452.96,76.04 C448.87998,82.04003 442.480044,85.04 433.76,85.04 C427.279968,85.04 422.100019,83.440016 418.22,80.24 C414.339981,77.039984 412.4,72.7600268 412.4,67.4 C412.4,60.7599668 415.239972,55.8800156 420.92,52.76 C423.080011,51.559994 424.939992,50.7800018 426.5,50.42 C428.060008,50.0599982 431.199976,49.6000028 435.92,49.04 C442.640034,48.3199964 447.01999,47.3200064 449.06,46.04 C451.10001,44.7599936 452.12,42.4000172 452.12,38.96 C452.12,35.6799836 450.980011,33.1000094 448.7,31.22 C446.419989,29.3399906 443.24002,28.4 439.16,28.4 C435.559982,28.4 432.200016,29.39999 429.08,31.4 C427.879994,32.200004 427.28,33.0399956 427.28,33.92 C427.28,34.2400016 427.639996,34.6399976 428.36,35.12 C429.480006,35.920004 430.04,37.2799904 430.04,39.2 C430.04,40.800008 429.460006,42.1199948 428.3,43.16 C427.139994,44.2000052 425.680009,44.72 423.92,44.72 C421.83999,44.72 420.100007,44.0000072 418.7,42.56 C417.299993,41.1199928 416.6,39.3600104 416.6,37.28 C416.6,32.7999776 418.819978,28.960016 423.26,25.76 C427.700022,22.559984 433.079968,20.96 439.4,20.96 C453.960073,20.96 461.24,27.95993 461.24,41.96 L461.24,66.2 C461.24,70.0400192 461.319999,72.3199964 461.48,73.04 C461.960002,75.840014 463.319989,77.24 465.56,77.24 C468.360014,77.24 469.76,74.6800256 469.76,69.56 L469.76,63.68 C469.76,61.1199872 470.999988,59.84 473.48,59.84 C476.120013,59.84 477.44,61.7599808 477.44,65.6 L477.44,66.2 L477.32,73.04 C477.159999,80.7200384 473.08004,84.56 465.08,84.56 Z M451.76,60.68 L451.88,52.16 C450.119991,53.760008 448.26001,54.8799968 446.3,55.52 C444.33999,56.1600032 440.840025,56.7199976 435.8,57.2 C426.679954,58.0800044 422.12,61.4399708 422.12,67.28 C422.12,70.3200152 423.219989,72.7199912 425.42,74.48 C427.620011,76.2400088 430.599981,77.12 434.36,77.12 C439.720027,77.12 443.939985,75.6600146 447.02,72.74 C450.100015,69.8199854 451.68,65.8000256 451.76,60.68 Z M499.4,26.48 L499.4,30.32 C503.880022,24.0799688 509.999961,20.96 517.76,20.96 C525.76004,20.96 532.119976,23.7199724 536.84,29.24 C541.560024,34.7600276 543.92,42.2399528 543.92,51.68 C543.92,61.8400508 541.420025,69.9399698 536.42,75.98 C531.419975,82.0200302 524.720042,85.04 516.32,85.04 C509.359965,85.04 503.720022,82.6000244 499.4,77.72 L499.4,87.68 C499.4,90.7200152 499.479999,92.6799956 499.64,93.56 C500.120002,96.0400124 501.279991,97.28 503.12,97.28 C503.680003,97.28 504.519994,97.1600012 505.64,96.92 C506.760006,96.6799988 507.599997,96.56 508.16,96.56 C510.720013,96.56 512,97.8799868 512,100.52 C512,103.160013 510.320017,104.48 506.96,104.48 C505.759994,104.48 503.960012,104.320002 501.56,104 C499.799991,103.759999 497.160018,103.64 493.64,103.64 C491.71999,103.64 490.120006,103.719999 488.84,103.88 C485.639984,104.280002 483.520005,104.48 482.48,104.48 C481.119993,104.48 479.960005,104.060004 479,103.22 C478.039995,102.379996 477.56,101.400006 477.56,100.28 C477.56,97.7199872 478.919986,96.44 481.64,96.44 C482.120002,96.44 482.879995,96.5599988 483.92,96.8 C485.280007,97.1200016 486.279997,97.28 486.92,97.28 C488.440008,97.28 489.379998,96.5000078 489.74,94.94 C490.100002,93.3799922 490.32,89.0400356 490.4,81.92 L490.52,35.6 C490.44,31.9199816 489.40001,30.08 487.4,30.08 C486.839997,30.08 485.980006,30.2199986 484.82,30.5 C483.659994,30.7800014 482.760003,30.92 482.12,30.92 C479.159985,30.92 477.68,29.6000132 477.68,26.96 C477.68,24.3999872 479.439982,23.12 482.96,23.12 C483.840004,23.12 484.799995,23.1599996 485.84,23.24 C487.84001,23.4000008 489.319995,23.48 490.28,23.48 C491.000004,23.48 492.039993,23.4200006 493.4,23.3 C494.760007,23.1799994 495.759997,23.12 496.4,23.12 C498.40001,23.12 499.4,24.2399888 499.4,26.48 Z M501.2,41.12 C500.479996,44.2400156 500.08,48.0399776 500,52.52 C500,52.8400016 499.96,53.4399956 499.88,54.32 C499.88,55.0400036 499.88,55.599998 499.88,56 C499.88,61.3600268 500.319996,65.2599878 501.2,67.7 C502.080004,70.1400122 503.819987,72.3199904 506.42,74.24 C509.020013,76.1600096 512.239981,77.12 516.08,77.12 C521.840029,77.12 526.299984,75.020021 529.46,70.82 C532.620016,66.619979 534.2,60.6400388 534.2,52.88 C534.2,36.87992 528.520057,28.88 517.16,28.88 C513.319981,28.88 509.900015,30.0399884 506.9,32.36 C503.899985,34.6800116 502.000004,37.5999824 501.2,41.12 Z"  fill="#fff" fill-rule="nonzero"></path>
    </g>
</svg>